<svg width="92" height="36" viewBox="0 0 92 36" fill="none" xmlns="http://www.w3.org/2000/svg">
	<path d="M21.4358 17.8841C21.3352 18.0562 20.9767 18.128 21.1633 17.8555C21.364 17.5399 20.5465 17.1383 19.0117 17.1097C16.229 21.6421 11.6964 25.1134 7.8094 26.5764C0.838429 29.2013 -2.48935 27.4514 2.14365 22.847C5.65784 19.3616 12.3276 17.3104 17.8642 16.7079C19.3415 14.2551 20.6037 10.8414 20.7184 8.13046C20.9336 3.225 17.5915 1.69011 12.9442 3.18205C7.76614 4.84594 3.30524 9.95213 5.08397 11.4153C7.135 12.1611 4.79703 13.237 3.83601 12.0464C1.61272 9.86623 6.58992 4.3438 12.3417 2.52228C17.7924 0.786659 22.1097 2.47918 21.909 8.23114C21.8084 10.9421 20.6467 14.2697 19.3128 16.5791C20.5751 16.6506 21.9091 17.124 21.4358 17.8841ZM17.5056 17.2816C11.6964 18.0562 6.15998 19.9065 2.63132 23.2343C-2.43193 28.0251 3.1333 27.9246 7.47936 26.1174C11.2232 24.396 15.0099 21.1688 17.5056 17.2816Z" fill="#CEC2AC" />
	<path d="M29.3826 3.94217C29.9994 2.40744 31.864 -0.533035 32.3517 0.0837846C32.8107 1.46074 31.4193 2.65127 30.6591 4.3869C28.8375 8.51791 27.4319 12.5627 26.4135 16.7224C26.8151 15.6467 27.8908 13.7103 28.9092 14.0259C29.8271 14.3987 29.0096 18.2859 30.0137 17.9417C30.3865 17.827 30.2718 18.4725 29.8128 18.5154C28.3497 18.415 29.153 14.7 28.7083 14.6713C27.7044 14.4704 25.9974 18.6015 25.4666 20.8246C25.3374 21.4557 24.7925 21.4126 24.8929 20.3512C25.2945 16.7798 27.7042 8.94816 29.0525 5.26187C27.3886 7.91541 24.8211 11.4725 22.1245 14.2123C22.354 14.1837 22.5692 14.1692 22.7556 14.198C23.0426 13.9254 23.358 13.6815 23.7167 13.4951C24.6203 13.0792 24.778 13.5668 24.104 13.9541C23.8744 14.0976 23.6737 14.2411 23.5016 14.3987C24.0467 14.6856 24.3048 15.245 24.3766 15.7327C24.5057 16.6937 23.7456 18.3288 22.9279 18.8308C21.7517 19.548 21.135 18.1997 21.3357 16.9231C21.4647 16.0624 21.8377 15.288 22.4402 14.5851C22.1678 14.5851 21.7087 14.6137 21.5509 14.6282C21.3214 14.6713 21.264 14.3413 21.594 14.198C24.8498 10.784 27.7328 6.63866 29.3826 3.94217ZM23.2004 14.7427C22.512 15.4456 22.1964 16.2059 22.0386 17.0807C21.9238 17.8409 21.8377 18.9884 22.6984 18.429C23.3726 17.9845 24.0324 16.7508 23.9175 15.8903C23.8027 15.2449 23.5733 14.9005 23.2004 14.7427Z" fill="#CEC2AC" />
	<path d="M31.9216 14.1261C32.2229 13.5667 32.9973 13.8536 32.524 14.542C32.0649 15.2449 31.4195 16.6363 31.1756 17.7406C31.5486 17.0235 32.7821 15.044 33.5281 14.7572C33.9728 14.5563 34.2596 14.8576 34.2596 15.3453C34.2596 16.1054 33.8866 17.2673 34.2022 17.4251C34.5752 17.6258 35.4644 16.4641 36.0813 15.1875C36.2104 14.9293 36.5977 15.0154 36.526 15.2306C35.7802 16.5501 34.7904 18.085 34.0445 17.8555C33.0549 17.4682 34.0876 15.1875 33.7433 15.1732C33.3848 15.0154 31.305 17.7981 30.8028 19.3902C30.7168 19.6772 30.3151 19.7058 30.3726 19.0603C30.5302 17.3247 31.4912 14.9724 31.9216 14.1261Z" fill="#CEC2AC" />
	<path d="M37.1134 27.3938C36.7549 29.531 35.1628 29.3589 35.4926 27.3077C36.1955 21.4985 39.3081 10.9847 41.8756 6.15083C42.1051 5.5197 42.8509 5.50538 42.5067 6.40914C40.7425 11.372 39.9392 13.8678 38.6195 19.0459C41.9187 10.4684 47.7421 1.44626 51.3423 1.73304C57.1086 2.52196 47.2975 23.191 52.0738 25.0415C54.1967 25.6726 58.4997 18.343 60.1493 15.1875C60.2927 14.915 60.7518 14.9579 60.5938 15.2449C58.7147 18.7017 54.6556 26.5333 51.586 25.5723C46.1066 23.4207 54.0817 4.98924 51.2847 2.73732C48.4163 1.01601 39.2364 14.8576 37.1134 27.3938Z" fill="#CEC2AC" />
	<path d="M60.1642 16.1916C59.6766 17.1669 59.5331 18.1136 60.1786 18.3432C61.9571 18.7305 64.3239 16.4929 65.0266 15.1875C65.1558 14.9437 65.6291 14.9437 65.4713 15.2306C64.8116 16.4068 62.2584 19.2468 60.0639 18.8308C58.3571 18.4292 59.4041 15.331 61.197 13.9254C62.0146 13.2225 63.6641 13.3516 62.6171 14.5565C62.1006 15.1588 61.0106 15.8329 60.1642 16.1916ZM60.7811 15.1444C61.4122 14.8574 61.9428 14.3699 62.1151 14.1978C62.689 13.624 62.1008 13.8536 61.7135 14.1547C61.3979 14.3986 61.0823 14.7428 60.7811 15.1444Z" fill="#CEC2AC" />
	<path d="M66.4179 26.9635C61.2828 25.271 65.8299 10.7697 67.8666 6.42345C66.8626 6.40914 68.6986 3.54039 70.0038 2.32122C71.223 1.01601 72.5715 2.12049 70.7067 4.40105C67.7519 8.90489 61.8711 25.0558 66.9057 26.4327C70.8072 27.3363 76.4728 18.343 78.2802 15.1873C78.438 14.9148 78.8825 14.9578 78.7247 15.2447C76.8027 18.6729 70.8071 28.4124 66.4179 26.9635Z" fill="#CEC2AC" />
	<path d="M78.8255 17.8841C78.6105 16.7653 78.1514 15.503 78.223 14.5134C78.2661 13.8679 78.6677 13.2942 79.0406 13.1651C79.9298 12.8352 80.274 13.8679 79.4851 14.1978C78.7536 14.7141 79.2987 16.0338 79.5282 17.4251C80.8766 16.5501 82.2678 15.6177 82.7843 15.1587C83.0567 14.9866 83.3723 15.1444 83.0424 15.3882C82.6408 15.8328 81.0774 16.8943 79.5855 17.8553C79.6715 18.7589 79.5855 19.6627 78.8826 20.3797C77.5917 21.6706 74.1779 20.9248 76.4443 19.4044C76.674 19.2611 77.6781 18.6299 78.8255 17.8841ZM78.8972 18.3001C77.8071 19.0029 76.8461 19.6053 76.5736 19.7774C75.211 20.6953 77.506 20.9965 78.5101 20.0498C78.9259 19.6196 78.9833 19.0029 78.8972 18.3001Z" fill="#CEC2AC" />
	<path d="M86.3273 17.7406C86.7001 17.0235 87.9338 15.044 88.6796 14.7572C89.1243 14.5563 89.4113 14.8576 89.4113 15.3453C89.4113 16.1054 89.0383 17.2673 89.3538 17.4251C89.7268 17.6258 90.6161 16.4641 91.2329 15.1875C91.3621 14.9293 91.7492 15.0154 91.6775 15.2306C90.9317 16.5501 89.9419 18.085 89.1961 17.8555C88.2064 17.4682 89.2392 15.1875 88.8948 15.1732C88.5361 15.0154 86.4565 17.7981 85.9543 19.3902C85.8683 19.6772 85.4667 19.7058 85.5241 19.0603C85.6244 18.0276 85.9831 16.3064 86.2987 15.2163C86.8007 13.2225 87.3744 11.2001 86.8151 11.0278C85.9688 10.6979 84.2763 12.7635 82.7702 14.2121C82.9997 14.1835 83.2147 14.169 83.4013 14.1978C83.6882 13.9252 84.0037 13.6814 84.3623 13.495C85.2659 13.079 85.4237 13.5667 84.7496 13.954C84.5201 14.0975 84.3194 14.2409 84.1471 14.3986C84.6922 14.6855 84.9504 15.2449 85.0221 15.7326C85.1512 16.6936 84.3911 18.3287 83.5734 18.8307C82.3972 19.5478 81.7805 18.1995 81.9813 16.9229C82.1103 16.0623 82.4832 15.2878 83.0857 14.585C82.8133 14.585 82.3542 14.6136 82.1965 14.6281C81.9669 14.6712 81.9095 14.3411 82.2396 14.1978C83.9895 12.62 85.8541 9.95197 87.145 10.5402C88.7513 11.2573 86.8293 16.0768 86.3273 17.7406ZM83.8459 14.7427C83.1575 15.4456 82.8419 16.2059 82.6841 17.0807C82.5693 17.8409 82.4832 18.9884 83.3439 18.429C84.0181 17.9845 84.6779 16.7508 84.5631 15.8903C84.4482 15.2449 84.2189 14.9005 83.8459 14.7427Z" fill="#CEC2AC" />
	<path d="M82.0576 22.6435C81.5267 22.6757 80.969 22.7164 80.4105 22.742C78.2406 22.8406 76.0766 23.021 73.9199 23.2962C72.3388 23.498 70.7572 23.7036 69.1833 23.9723C67.3923 24.2781 65.603 24.6097 63.825 25.0143C61.7425 25.4881 59.6671 26.0175 57.5992 26.5871C55.1859 27.252 52.8075 28.0984 50.4699 29.1353C49.866 29.4033 49.2594 29.6611 48.6543 29.9241C48.5049 29.989 48.4051 29.9409 48.367 29.7837C48.3266 29.6168 48.3778 29.5035 48.5265 29.4324C49.9456 28.7532 51.3984 28.2215 52.8642 27.7553C54.5564 27.2172 56.2508 26.6892 57.9523 26.2042C59.2542 25.8331 60.5662 25.5183 61.8784 25.2106C63.0829 24.9282 64.2918 24.6732 65.5024 24.4351C66.6002 24.2193 67.7013 24.0254 68.8042 23.8528C70.2009 23.6342 71.5992 23.4269 73.0001 23.2508C75.1903 22.9755 77.3866 22.7757 79.5917 22.7046C80.4228 22.6779 81.2542 22.6631 82.0576 22.6435Z" fill="#CEC2AC" />
	<path d="M82.0571 22.6435C82.0571 22.6435 80.972 22.7164 79.0733 22.8439C78.5987 22.8772 78.0732 22.9139 77.5012 22.9539C77.2148 22.969 76.9183 23.0042 76.6109 23.0389C76.3034 23.0731 75.9847 23.1084 75.6556 23.145C75.3265 23.1816 74.9868 23.2194 74.6372 23.2581C74.2869 23.2986 73.9284 23.3308 73.5612 23.3911C72.8255 23.4979 72.0519 23.6102 71.2448 23.7273C70.8412 23.7856 70.4291 23.8452 70.0093 23.9059C69.5881 23.9675 69.1627 24.0224 68.7309 24.108C68.2983 24.1868 67.8584 24.2669 67.4118 24.3483C66.9655 24.4311 66.5104 24.5067 66.0549 24.6083C65.5981 24.7045 65.1351 24.8019 64.6663 24.9007C64.1967 24.9979 63.7236 25.0969 63.2478 25.2183C62.2953 25.4535 61.3173 25.6771 60.3316 25.935C59.3486 26.2009 58.3429 26.4564 57.3366 26.742C56.8337 26.8915 56.3279 27.042 55.8195 27.1932C55.3181 27.3628 54.8143 27.5332 54.3084 27.7042C53.8021 27.8737 53.3055 28.0791 52.8011 28.2658C52.2949 28.4489 51.801 28.6669 51.3027 28.877C50.8048 29.0863 50.3056 29.2995 49.8085 29.5189L49.0614 29.845L48.6811 30.0106L48.6332 30.0277C48.6117 30.0335 48.5845 30.0383 48.5603 30.0419C48.5115 30.0441 48.4548 30.0372 48.4079 30.0055C48.312 29.9406 48.2879 29.8469 48.2722 29.7708C48.2658 29.7434 48.2605 29.6877 48.2652 29.6449C48.2691 29.6009 48.2815 29.5537 48.3052 29.513C48.352 29.4283 48.4293 29.3782 48.5003 29.3449L48.8722 29.1778C49.1207 29.0675 49.3667 28.953 49.6169 28.8459C50.1242 28.6453 50.6266 28.4312 51.1398 28.2552C52.1572 27.8769 53.1955 27.5673 54.2194 27.2587C55.2439 26.9484 56.2603 26.6405 57.2644 26.3365C57.5171 26.2619 57.7619 26.1813 58.0191 26.1124C58.272 26.0489 58.5239 25.9856 58.7749 25.9225C59.2771 25.7965 59.7756 25.6712 60.27 25.5471C60.7643 25.4229 61.2546 25.2998 61.7403 25.1778C62.2334 25.0636 62.7162 24.9682 63.1969 24.864C63.6768 24.7622 64.1515 24.6615 64.6207 24.5619C65.0878 24.4627 65.5548 24.3589 66.016 24.2857C66.9366 24.125 67.8322 23.9688 68.6983 23.8175C69.5694 23.693 70.4111 23.5727 71.219 23.4573C71.6228 23.4 72.0182 23.344 72.4045 23.2894C72.5978 23.262 72.7887 23.2349 72.9773 23.2083C73.1675 23.1887 73.3551 23.1693 73.5406 23.15C74.2802 23.0751 74.9818 23.0043 75.6411 22.9376C76.2992 22.858 76.9207 22.8412 77.4933 22.8067C78.0663 22.7756 78.5924 22.7469 79.0677 22.7211C79.5426 22.6891 79.9676 22.6852 80.3372 22.678C80.7067 22.6707 81.0209 22.6645 81.2758 22.6595C81.7852 22.6488 82.0571 22.6435 82.0571 22.6435ZM82.0571 22.6435C82.0571 22.6435 81.7854 22.6516 81.2758 22.667C81.021 22.6746 80.7069 22.6841 80.3375 22.6951C79.9681 22.706 79.5433 22.7144 79.069 22.7513C78.5944 22.782 78.069 22.816 77.4969 22.8531C76.9252 22.8935 76.3056 22.9164 75.648 23.0029C74.9893 23.0764 74.2885 23.1545 73.5496 23.2368C73.3654 23.2573 73.179 23.278 72.9901 23.299C72.8015 23.3264 72.6106 23.3541 72.4175 23.3823C72.0313 23.4385 71.636 23.4957 71.2325 23.5544C70.4262 23.6725 69.5862 23.7956 68.7167 23.923C67.8511 24.0772 66.956 24.2367 66.0359 24.4007C65.5741 24.4759 65.1166 24.5794 64.6459 24.6811C64.1772 24.7823 63.7028 24.8846 63.2232 24.9881C62.7453 25.0933 62.255 25.1924 61.7731 25.3057C61.2879 25.4294 60.7981 25.5542 60.3042 25.6803C59.8103 25.8061 59.3122 25.9331 58.8105 26.061C58.5597 26.125 58.3079 26.1891 58.0554 26.2535C57.8094 26.3203 57.5571 26.404 57.3069 26.4788C56.3039 26.7865 55.2886 27.098 54.2652 27.412C53.2407 27.7248 52.2107 28.036 51.1982 28.4164C50.687 28.5938 50.1912 28.8075 49.6888 29.0079C49.44 29.1152 49.1935 29.2309 48.9456 29.3421L48.5744 29.5105C48.4676 29.5608 48.429 29.6253 48.4508 29.7392C48.4595 29.7937 48.4829 29.8413 48.5037 29.852C48.513 29.8601 48.5272 29.8606 48.5456 29.8615C48.5547 29.8589 48.5614 29.8592 48.573 29.8572L48.621 29.8402L48.9889 29.6812L49.737 29.3577C50.2345 29.1403 50.7343 28.9288 51.2357 28.7202C51.7363 28.5112 52.2326 28.2943 52.741 28.1122C53.248 27.9266 53.7462 27.7226 54.2557 27.5541C56.2765 26.8241 58.3254 26.3252 60.2986 25.8021C61.2862 25.5475 62.2642 25.3275 63.2178 25.0957C63.6933 24.9761 64.1708 24.878 64.6406 24.7824C65.1105 24.6852 65.5749 24.5892 66.033 24.4944C66.4901 24.3942 66.945 24.3201 67.3917 24.239C67.8386 24.1592 68.2788 24.0806 68.7116 24.0035C69.1429 23.9196 69.5755 23.8651 69.9939 23.8054C70.414 23.7461 70.8262 23.688 71.23 23.6311C72.0378 23.5177 72.8118 23.409 73.5479 23.3057C73.9152 23.2492 74.2787 23.2201 74.6283 23.1834C74.9789 23.1481 75.3192 23.1137 75.6492 23.0806C75.9791 23.0473 76.2983 23.0152 76.6065 22.9841C76.9146 22.9525 77.2115 22.9204 77.498 22.9082C78.0704 22.8739 78.5962 22.8425 79.0711 22.8142C80.9714 22.7052 82.0571 22.6435 82.0571 22.6435Z" fill="#CEC2AC" />
	<path d="M27.0837 33.2975V35.9807H26.8115V33.8341L25.7574 35.6395H25.6233L24.5692 33.8455V35.9806H24.2971V33.2975H24.531L25.6963 35.2869L26.8501 33.2975H27.0837Z" fill="#CEC2AC" />
	<path d="M29.9974 34.731V35.9807H29.7368V35.6664C29.6142 35.8733 29.3764 35.9999 29.0429 35.9999C28.5869 35.9999 28.3069 35.7622 28.3069 35.4134C28.3069 35.1029 28.5063 34.8423 29.0851 34.8423H29.7253V34.7197C29.7253 34.3747 29.5298 34.1869 29.1542 34.1869C28.8936 34.1869 28.6482 34.2789 28.4834 34.4245L28.3608 34.2213C28.564 34.0487 28.8629 33.9491 29.1811 33.9491C29.7024 33.9491 29.9974 34.2098 29.9974 34.731ZM29.7253 35.3751V35.0454H29.0927C28.7017 35.0454 28.5752 35.1986 28.5752 35.4058C28.5752 35.6396 28.763 35.7853 29.085 35.7853C29.3918 35.7853 29.6181 35.6396 29.7253 35.3751Z" fill="#CEC2AC" />
	<path d="M31.0334 35.7507L31.156 35.5361C31.3171 35.6627 31.5892 35.7622 31.8729 35.7622C32.2561 35.7622 32.4133 35.6318 32.4133 35.4327C32.4133 34.9075 31.1062 35.3216 31.1062 34.5242C31.1062 34.1947 31.3899 33.9493 31.9035 33.9493C32.1642 33.9493 32.4478 34.0221 32.6165 34.1371L32.4976 34.3556C32.3213 34.2329 32.1105 34.183 31.9035 34.183C31.5394 34.183 31.3784 34.3247 31.3784 34.5165C31.3784 35.0608 32.6855 34.6506 32.6855 35.4249C32.6855 35.7737 32.3788 35.9998 31.8536 35.9998C31.5201 35.9998 31.1982 35.8925 31.0334 35.7507Z" fill="#CEC2AC" />
	<path d="M34.8243 35.8581C34.7169 35.954 34.556 35.9999 34.3989 35.9999C34.0194 35.9999 33.8085 35.7853 33.8085 35.4134V34.1945H33.4481V33.9645H33.8085V33.5237H34.0807V33.9645H34.6939V34.1945H34.0807V35.3981C34.0807 35.6357 34.2033 35.7661 34.4295 35.7661C34.5406 35.7661 34.6519 35.7316 34.7285 35.6627L34.8243 35.8581Z" fill="#CEC2AC" />
	<path d="M37.5769 35.0569H35.8903C35.921 35.4786 36.2429 35.7584 36.6838 35.7584C36.9292 35.7584 37.1476 35.6701 37.3009 35.4938L37.4542 35.6701C37.274 35.8847 36.9942 35.9997 36.676 35.9997C36.0473 35.9997 35.618 35.5704 35.618 34.9724C35.618 34.3744 36.0358 33.949 36.6032 33.949C37.1705 33.949 37.5807 34.3668 37.5807 34.9724C37.5807 34.9956 37.5769 35.0262 37.5769 35.0569ZM35.8903 34.8538H37.32C37.2855 34.459 36.9981 34.183 36.6032 34.183C36.2123 34.183 35.9249 34.4589 35.8903 34.8538Z" fill="#CEC2AC" />
	<path d="M39.7278 33.9491V34.2137C39.7048 34.2137 39.6818 34.2098 39.6626 34.2098C39.2409 34.2098 38.9842 34.478 38.9842 34.9534V35.9807H38.712V33.9645H38.9727V34.3593C39.0992 34.091 39.3559 33.9491 39.7278 33.9491Z" fill="#CEC2AC" />
	<path d="M44.5621 34.2174C44.5621 34.7885 44.1482 35.1334 43.4658 35.1334H42.7452V35.9806H42.4616V33.2975H43.4658C44.1482 33.2975 44.5621 33.6424 44.5621 34.2174ZM44.2784 34.2174C44.2784 33.7881 43.9947 33.5427 43.4581 33.5427H42.7451V34.8843H43.4581C43.9947 34.8845 44.2784 34.6391 44.2784 34.2174Z" fill="#CEC2AC" />
	<path d="M47.4371 35.0569H45.7505C45.7812 35.4786 46.1031 35.7584 46.5439 35.7584C46.7893 35.7584 47.0078 35.6701 47.1611 35.4938L47.3143 35.6701C47.1341 35.8847 46.8544 35.9997 46.5362 35.9997C45.9075 35.9997 45.4782 35.5704 45.4782 34.9724C45.4782 34.3744 45.896 33.949 46.4633 33.949C47.0307 33.949 47.4408 34.3668 47.4408 34.9724C47.441 34.9956 47.4371 35.0262 47.4371 35.0569ZM45.7507 34.8538H47.1804C47.1458 34.459 46.8584 34.183 46.4635 34.183C46.0726 34.183 45.785 34.4589 45.7507 34.8538Z" fill="#CEC2AC" />
	<path d="M50.4281 34.8117V35.9807H50.1559V34.8384C50.1559 34.413 49.9335 34.1945 49.5503 34.1945C49.1171 34.1945 48.8449 34.4628 48.8449 34.9228V35.9807H48.5728V33.9645H48.8334V34.3363C48.979 34.0909 49.2512 33.9491 49.6001 33.9491C50.0907 33.9491 50.4281 34.2328 50.4281 34.8117Z" fill="#CEC2AC" />
	<path d="M51.5474 34.9725C51.5474 34.3708 51.9843 33.9491 52.5862 33.9491C52.9273 33.9491 53.2149 34.0833 53.3759 34.3478L53.1727 34.4858C53.0347 34.2826 52.8201 34.1869 52.5862 34.1869C52.1454 34.1869 51.8234 34.5012 51.8234 34.9727C51.8234 35.4481 52.1454 35.7585 52.5862 35.7585C52.8201 35.7585 53.0347 35.6665 53.1727 35.4633L53.3759 35.6014C53.2149 35.862 52.9275 36 52.5862 36C51.9843 35.9998 51.5474 35.5744 51.5474 34.9725Z" fill="#CEC2AC" />
	<path d="M54.4231 33.3281C54.4231 33.2246 54.5113 33.1364 54.6224 33.1364C54.7335 33.1364 54.8217 33.2207 54.8217 33.3242C54.8217 33.4353 54.7374 33.5236 54.6224 33.5236C54.5112 33.5237 54.4231 33.4355 54.4231 33.3281ZM54.4844 33.9645H54.7565V35.9807H54.4844V33.9645Z" fill="#CEC2AC" />
	<path d="M56.0906 33.1366H56.3627V35.9807H56.0906V33.1366Z" fill="#CEC2AC" />
	<path d="M61.017 35.2638H59.5221L59.2001 35.9806H58.9049L60.1316 33.2973H60.4113L61.638 35.9806H61.3391L61.017 35.2638ZM60.9135 35.0339L60.2696 33.5926L59.6257 35.0339H60.9135Z" fill="#CEC2AC" />
	<path d="M63.6166 33.9491V34.2137C63.5936 34.2137 63.5706 34.2098 63.5514 34.2098C63.1297 34.2098 62.873 34.478 62.873 34.9534V35.9807H62.6008V33.9645H62.8615V34.3593C62.988 34.091 63.2449 33.9491 63.6166 33.9491Z" fill="#CEC2AC" />
	<path d="M65.8324 35.8581C65.725 35.954 65.5641 35.9999 65.407 35.9999C65.0275 35.9999 64.8166 35.7853 64.8166 35.4134V34.1945H64.4562V33.9645H64.8166V33.5237H65.0888V33.9645H65.702V34.1945H65.0888V35.3981C65.0888 35.6357 65.2114 35.7661 65.4376 35.7661C65.5487 35.7661 65.66 35.7316 65.7366 35.6627L65.8324 35.8581Z" fill="#CEC2AC" />
	<path d="M66.8406 33.3281C66.8406 33.2246 66.9288 33.1364 67.0399 33.1364C67.151 33.1364 67.2393 33.2207 67.2393 33.3242C67.2393 33.4353 67.1549 33.5236 67.0399 33.5236C66.9287 33.5237 66.8406 33.4355 66.8406 33.3281ZM66.9019 33.9645H67.1741V35.9807H66.9019V33.9645Z" fill="#CEC2AC" />
	<path d="M68.2284 35.7507L68.351 35.5361C68.5121 35.6627 68.7842 35.7622 69.0679 35.7622C69.4512 35.7622 69.6083 35.6318 69.6083 35.4327C69.6083 34.9075 68.3012 35.3216 68.3012 34.5242C68.3012 34.1947 68.5849 33.9493 69.0986 33.9493C69.3592 33.9493 69.6429 34.0221 69.8115 34.1371L69.6927 34.3556C69.5164 34.2329 69.3055 34.183 69.0986 34.183C68.7344 34.183 68.5734 34.3247 68.5734 34.5165C68.5734 35.0608 69.8805 34.6506 69.8805 35.4249C69.8805 35.7737 69.5738 35.9998 69.0486 35.9998C68.7153 35.9998 68.3932 35.8925 68.2284 35.7507Z" fill="#CEC2AC" />
	<path d="M72.0199 35.8581C71.9125 35.954 71.7516 35.9999 71.5945 35.9999C71.2149 35.9999 71.0041 35.7853 71.0041 35.4134V34.1945H70.6437V33.9645H71.0041V33.5237H71.2763V33.9645H71.8895V34.1945H71.2763V35.3981C71.2763 35.6357 71.3989 35.7661 71.6251 35.7661C71.7362 35.7661 71.8475 35.7316 71.924 35.6627L72.0199 35.8581Z" fill="#CEC2AC" />
</svg>
